<?xml version="1.0" standalone="no"?>
<svg viewBox="0 0 200 200" xmlns="http://www.w3.org/2000/svg">
  <path fill="#FF1351" d="M33.7,-61C44.2,-52.4,53.4,-44.3,57.3,-34.2C61.2,-24.1,59.9,-12,56,-2.2C52.1,7.6,45.7,15.1,41.2,24.2C36.7,33.3,34.1,44,27.6,51.9C21,59.8,10.5,64.9,1.8,61.9C-7,58.9,-14,47.6,-27.2,43.6C-40.4,39.5,-59.7,42.6,-69.6,36.5C-79.5,30.4,-79.9,15.2,-75.6,2.5C-71.3,-10.2,-62.3,-20.5,-55.6,-32.2C-49,-43.9,-44.8,-57.1,-35.9,-66.5C-27,-76,-13.5,-81.8,-0.9,-80.2C11.7,-78.6,23.3,-69.6,33.7,-61Z" transform="translate(100 100)" />
</svg>
